# xmcd
#
# Track frame offsets: 
#        150
#        17461
#        28184
#        45146
#        62169
#        76669
#        97456
#        113013
#        127522
#        143568
#
# Disc length: 2018 seconds
#
# Revision: 0
# Processed by: cddbd v1.5.2PL0 Copyright (c) Steve Scherf et al.
# Submitted via: ExactAudioCopyFreeDBPlugin 1.0
#
DISCID=6e07e00a
DTITLE=Leo Welch - Sabougla Voices
DYEAR=2013
DGENRE=Blues
TTITLE0=Praise His Name
TTITLE1=You Can't Hurry God
TTITLE2=Me And My Lord
TTITLE3=Take Care Of Me Lord
TTITLE4=Mother Loves Her Hildren
TTITLE5=Praying Time
TTITLE6=Somebody Touched Me
TTITLE7=A Long Journey
TTITLE8=His Holy Name
TTITLE9=The Lord Will Make A Way
EXTD=
EXTT0=
EXTT1=
EXTT2=
EXTT3=
EXTT4=
EXTT5=
EXTT6=
EXTT7=
EXTT8=
EXTT9=
PLAYORDER=
